<svg xmlns="http://www.w3.org/2000/svg" version="1.1" xmlns:xlink="http://www.w3.org/1999/xlink" xmlns:svgjs="http://svgjs.com/svgjs" width="512" height="512" x="0" y="0" viewBox="0 0 512 512" style="enable-background:new 0 0 512 512; height: 100%;" xml:space="preserve" class=""><g><linearGradient id="a" x1="256" x2="256" y1="0" y2="512" gradientUnits="userSpaceOnUse"><stop offset="0" stop-color="#f704fe"></stop><stop offset="1" stop-color="#24bce3"></stop></linearGradient><circle cx="256" cy="256" r="256" fill="url(#a)" data-original="url(#a)" class=""></circle><path fill="#fffffe" d="M208.5 342.6c-1.8 0-3.3-1.5-3.3-3.3-.1-20.5-7.7-40.7-21.6-56.7-8.7-10-15.1-21.5-19-34.1-2.9-9.2-4.4-18.9-4.4-28.7 0-26.4 11.1-51.9 30.2-70 19.5-18.3 45-27.5 71.7-25.8 49.9 3 88.5 43 89.9 93 .3 10.9-1.2 21.4-4.4 31.5-4 12.8-10.6 24.6-19.7 34.9-13.5 15.2-21 35.2-21 56 0 1.8-1.5 3.3-3.3 3.3s-3.3-1.5-3.3-3.3c0-22.5 8.1-43.9 22.7-60.4 8.5-9.6 14.7-20.5 18.4-32.5 2.9-9.4 4.3-19.2 4-29.3-1.2-46.5-37.2-83.7-83.6-86.5-24.9-1.6-48.7 7-66.8 24-18.2 17.1-28.1 40.2-28.1 65.1 0 9.1 1.4 18.2 4 26.8 3.7 11.7 9.7 22.5 17.7 31.7 14.9 17.2 23.1 38.9 23.2 61.1 0 1.7-1.5 3.2-3.3 3.2z" data-original="#fffffe" class=""></path><path fill="#fffffe" d="M344.4 250.8H167.6c-1.8 0-3.3-1.5-3.3-3.3s1.5-3.3 3.3-3.3h176.8c1.8 0 3.3 1.5 3.3 3.3.1 1.8-1.5 3.3-3.3 3.3zM304.8 362.8h-97.6c-6.9 0-12.6-5.6-12.6-12.6v-1.7c0-6.9 5.6-12.6 12.6-12.6h97.7c6.9 0 12.6 5.6 12.6 12.6v1.7c-.1 6.9-5.7 12.6-12.7 12.6zm-97.6-20.2c-3.2 0-5.9 2.7-5.9 5.9v1.7c0 3.2 2.7 5.9 5.9 5.9h97.7c3.2 0 5.9-2.7 5.9-5.9v-1.7c0-3.2-2.7-5.9-5.9-5.9z" data-original="#fffffe" class=""></path><path fill="#fffffe" d="M284.6 382.9h-57.2c-7.4 0-13.3-6-13.3-13.3v-10.2c0-1.8 1.5-3.3 3.3-3.3s3.3 1.5 3.3 3.3v10.2c0 3.7 3 6.7 6.7 6.7h57.2c3.7 0 6.7-3 6.7-6.7v-10.2c0-1.8 1.5-3.3 3.3-3.3s3.3 1.5 3.3 3.3v10.2c.1 7.3-5.9 13.3-13.3 13.3z" data-original="#fffffe" class=""></path><path fill="#fffffe" d="M256 402.8c-12.8 0-23.2-10.4-23.2-23.2 0-1.8 1.5-3.3 3.3-3.3s3.3 1.5 3.3 3.3c0 9.1 7.4 16.5 16.5 16.5s16.5-7.4 16.5-16.5c0-1.8 1.5-3.3 3.3-3.3s3.3 1.5 3.3 3.3c.2 12.7-10.2 23.2-23 23.2zM276.8 218.3h-41.5c-4.2 0-7.5-3.4-7.5-7.5v-41.5c0-4.2 3.4-7.5 7.5-7.5h41.5c4.2 0 7.5 3.4 7.5 7.5v41.5c0 4.1-3.4 7.5-7.5 7.5zm-41.6-49.9c-.5 0-.9.3-.9.9v41.5c0 .5.3.9.9.9h41.5c.5 0 .9-.3.9-.9v-41.5c0-.5-.3-.9-.9-.9z" data-original="#fffffe" class=""></path><path fill="#fffffe" d="M240.3 168.4c-1.8 0-3.3-1.5-3.3-3.3v-14.2c0-1.8 1.5-3.3 3.3-3.3s3.3 1.5 3.3 3.3v14.2c0 1.8-1.5 3.3-3.3 3.3zM256 168.4c-1.8 0-3.3-1.5-3.3-3.3v-14.2c0-1.8 1.5-3.3 3.3-3.3s3.3 1.5 3.3 3.3v14.2c0 1.8-1.5 3.3-3.3 3.3zM271.7 168.4c-1.8 0-3.3-1.5-3.3-3.3v-14.2c0-1.8 1.5-3.3 3.3-3.3s3.3 1.5 3.3 3.3v14.2c0 1.8-1.5 3.3-3.3 3.3zM231.1 209.1h-14.2c-1.8 0-3.3-1.5-3.3-3.3s1.5-3.3 3.3-3.3h14.2c1.8 0 3.3 1.5 3.3 3.3s-1.5 3.3-3.3 3.3zM231.1 193.3h-14.2c-1.8 0-3.3-1.5-3.3-3.3s1.5-3.3 3.3-3.3h14.2c1.8 0 3.3 1.5 3.3 3.3s-1.5 3.3-3.3 3.3zM231.1 177.7h-14.2c-1.8 0-3.3-1.5-3.3-3.3s1.5-3.3 3.3-3.3h14.2c1.8 0 3.3 1.5 3.3 3.3s-1.5 3.3-3.3 3.3zM271.7 232.5c-1.8 0-3.3-1.5-3.3-3.3V215c0-1.8 1.5-3.3 3.3-3.3s3.3 1.5 3.3 3.3v14.2c0 1.8-1.5 3.3-3.3 3.3zM256 232.5c-1.8 0-3.3-1.5-3.3-3.3V215c0-1.8 1.5-3.3 3.3-3.3s3.3 1.5 3.3 3.3v14.2c0 1.8-1.5 3.3-3.3 3.3zM240.3 232.5c-1.8 0-3.3-1.5-3.3-3.3V215c0-1.8 1.5-3.3 3.3-3.3s3.3 1.5 3.3 3.3v14.2c0 1.8-1.5 3.3-3.3 3.3zM295.2 177.7H281c-1.8 0-3.3-1.5-3.3-3.3s1.5-3.3 3.3-3.3h14.2c1.8 0 3.3 1.5 3.3 3.3s-1.5 3.3-3.3 3.3zM295.2 193.3H281c-1.8 0-3.3-1.5-3.3-3.3s1.5-3.3 3.3-3.3h14.2c1.8 0 3.3 1.5 3.3 3.3s-1.5 3.3-3.3 3.3zM295.2 209.1H281c-1.8 0-3.3-1.5-3.3-3.3s1.5-3.3 3.3-3.3h14.2c1.8 0 3.3 1.5 3.3 3.3s-1.5 3.3-3.3 3.3zM264.2 202.3h-16.3c-2.3 0-4.2-1.8-4.2-4.2v-16.3c0-2.3 1.8-4.2 4.2-4.2h16.3c2.3 0 4.2 1.8 4.2 4.2v16.3c0 2.5-1.9 4.2-4.2 4.2zm-13.8-6.6h11.3v-11.3h-11.3zM193.6 154.7c-.8 0-1.7-.3-2.3-1L170 132.4c-1.3-1.3-1.3-3.4 0-4.7s3.4-1.3 4.7 0L196 149c1.3 1.3 1.3 3.4 0 4.7-.7.7-1.5 1-2.4 1z" data-original="#fffffe" class=""></path><path fill="#fffffe" d="M165.1 136.5c-7.5 0-13.6-6.1-13.6-13.6s6.1-13.7 13.6-13.7 13.6 6.1 13.6 13.6-6.1 13.7-13.6 13.7zm0-20.6c-3.8 0-7 3.1-7 7 0 3.8 3.1 7 7 7s7-3.1 7-7-3.2-7-7-7zM169.4 312.7c-1.8 0-3.3-1.5-3.3-3.3 0-1.1.5-2.1 1.4-2.7l21.7-21.7c1.3-1.3 3.4-1.3 4.7 0s1.3 3.4 0 4.7l-22 22c-.7.6-1.6 1-2.5 1z" data-original="#fffffe" class=""></path><path fill="#fffffe" d="M162.2 330.2c-7.5 0-13.6-6.1-13.6-13.6s6.1-13.6 13.6-13.6 13.6 6.1 13.6 13.6-6.1 13.6-13.6 13.6zm0-20.5c-3.8 0-7 3.1-7 7s3.1 7 7 7 7-3.1 7-7c0-4-3.2-7-7-7zM163.5 223h-25.7c-1.8 0-3.3-1.5-3.3-3.3s1.5-3.3 3.3-3.3h25.6c1.8 0 3.3 1.5 3.3 3.3.1 1.8-1.4 3.3-3.2 3.3z" data-original="#fffffe" class=""></path><path fill="#fffffe" d="M127.7 233.3c-7.5 0-13.6-6.1-13.6-13.6s6.1-13.7 13.6-13.7 13.6 6.1 13.6 13.6c-.1 7.6-6.1 13.7-13.6 13.7zm0-20.5c-3.8 0-7 3.1-7 7s3.1 6.9 7 6.9c3.8 0 7-3.1 7-7-.1-3.8-3.2-6.9-7-6.9zM318.6 154.6c-.9 0-1.7-.3-2.4-1a3.32 3.32 0 0 1 0-4.7l21.1-21.1c1.3-1.3 3.4-1.3 4.7 0s1.3 3.4 0 4.7l-21.1 21.1c-.6.6-1.5 1-2.3 1z" data-original="#fffffe" class=""></path><path fill="#fffffe" d="M346.9 136.5c-7.5 0-13.6-6.1-13.6-13.6s6.1-13.7 13.6-13.7 13.6 6.1 13.6 13.6-6.1 13.7-13.6 13.7zm0-20.6c-3.8 0-7 3.1-7 7 0 3.8 3.1 7 7 7s7-3.1 7-7-3.1-7-7-7zM342.6 312.7c-.9 0-1.7-.3-2.4-1l-22.1-22.1c-1.3-1.3-1.3-3.4 0-4.7s3.4-1.3 4.7 0l22.1 22.1c1.3 1.3 1.3 3.4 0 4.7-.6.6-1.5 1-2.3 1z" data-original="#fffffe" class=""></path><path fill="#fffffe" d="M349.8 330.2c-7.5 0-13.6-6.1-13.6-13.6s6.1-13.6 13.6-13.6 13.6 6.1 13.6 13.6-6.1 13.6-13.6 13.6zm0-20.5c-3.8 0-7 3.1-7 7s3.1 7 7 7 7-3.1 7-7c0-4-3.2-7-7-7zM374.2 223h-25.5c-1.8 0-3.3-1.5-3.3-3.3s1.5-3.3 3.3-3.3h25.5c1.8 0 3.3 1.5 3.3 3.3s-1.5 3.3-3.3 3.3z" data-original="#fffffe" class=""></path><path fill="#fffffe" d="M384.3 233.3c-7.5 0-13.6-6.1-13.6-13.6s6.1-13.6 13.6-13.6 13.6 6.1 13.6 13.6c0 7.6-6 13.6-13.6 13.6zm0-20.5c-3.8 0-7 3.1-7 7s3.1 6.9 7 6.9 7-3.1 7-7c0-3.8-3.1-6.9-7-6.9zM232.3 295.3c-7.5 0-13.6-6.1-13.6-13.6s6.1-13.6 13.6-13.6 13.6 6.1 13.6 13.6c0 7.4-6.1 13.6-13.6 13.6zm0-20.6c-3.8 0-7 3.1-7 7s3.1 7 7 7c3.8 0 7-3.1 7-7s-3.2-7-7-7z" data-original="#fffffe" class=""></path><path fill="#fffffe" d="M244.2 342.6c-1.8 0-3.3-1.5-3.3-3.3v-26.4h-6.7c-2.8 0-5.2-2.4-5.2-5.2v-15.8c0-1.8 1.5-3.3 3.3-3.3s3.3 1.5 3.3 3.3v14.3h6.7c2.8 0 5.2 2.4 5.2 5.2v28c0 1.7-1.5 3.2-3.3 3.2zM279.7 295.3c-7.5 0-13.6-6.1-13.6-13.6s6.1-13.6 13.6-13.6 13.6 6.1 13.6 13.6c0 7.4-6.1 13.6-13.6 13.6zm0-20.6c-3.8 0-7 3.1-7 7s3.1 7 7 7 7-3.1 7-7-3.2-7-7-7z" data-original="#fffffe" class=""></path><path fill="#fffffe" d="M267.8 342.6c-1.8 0-3.3-1.5-3.3-3.3v-27.9c0-2.8 2.4-5.2 5.2-5.2h6.7v-14.3c0-1.8 1.5-3.3 3.3-3.3s3.3 1.5 3.3 3.3v15.8c0 2.8-2.4 5.2-5.2 5.2h-6.7v26.4c.1 1.8-1.4 3.3-3.3 3.3z" data-original="#fffffe" class=""></path></g></svg>